<svg id="21ca917e-fcbe-40ff-8d1c-7c5b54d5dbac" data-name="29b73e6f-d0f6-426f-a3e6-48e3b0f80e82" xmlns="http://www.w3.org/2000/svg" xmlns:xlink="http://www.w3.org/1999/xlink" width="32" height="32" viewBox="0 0 32 32"><defs><clipPath id="9f6af3e3-7cc1-4c7b-a987-82948cba79ce"><polygon points="14.361 17.305 14.361 22.809 17.433 22.809 17.433 17.305 22.937 17.305 22.937 14.457 17.433 14.457 17.433 8.889 14.361 8.889 14.361 14.457 8.889 14.457 8.889 17.305 14.361 17.305" style="fill:none"/></clipPath><clipPath id="20be564b-6b67-4f72-91cd-8fe40cfac616"><rect x="-391.11108" y="-728" width="1280" height="2390.22217" style="fill:none"/></clipPath></defs><title>add</title><circle cx="16" cy="16" r="14.03125" style="fill:#fff"/><path d="M16,31.22217A15.22217,15.22217,0,1,1,31.22217,16h0A15.23938,15.23938,0,0,1,16,31.22217ZM16,2.77783A13.22217,13.22217,0,1,0,29.22217,16,13.22217,13.22217,0,0,0,16,2.77783Z" style="fill:#0023ff"/><g style="clip-path:url(#9f6af3e3-7cc1-4c7b-a987-82948cba79ce)"><g style="clip-path:url(#20be564b-6b67-4f72-91cd-8fe40cfac616)"><rect x="4.44447" y="4.44444" width="22.93688" height="22.80892" style="fill:#0023ff"/></g></g></svg>