<svg id="5d033a7b-65b4-488e-9ec9-1efc90271511" data-name="Layer 1" xmlns="http://www.w3.org/2000/svg" xmlns:xlink="http://www.w3.org/1999/xlink" width="11" height="8" viewBox="0 0 11 8"><defs><clipPath id="0c1bc40b-1c04-48d2-af39-5bfb1d9a870d"><path d="M9.89605,0.44478a0.88234,0.88234,0,0,0-.67383.29774L5.5,5.1249,1.77778,0.74252A0.88234,0.88234,0,0,0,1.10395.44478,0.84026,0.84026,0,0,0,.44444.74252a0.9934,0.9934,0,0,0-.27778.71094,1.009,1.009,0,0,0,.27778.71137L4.77778,7.2716a0.88625,0.88625,0,0,0,.33333.22222A0.85631,0.85631,0,0,0,5.5,7.55155a0.85631,0.85631,0,0,0,.38889-0.05773A0.88625,0.88625,0,0,0,6.22222,7.2716l4.33333-5.10677a1.009,1.009,0,0,0,.27778-0.71137A0.9934,0.9934,0,0,0,10.55556.74252,0.84026,0.84026,0,0,0,9.89605.44478Z" style="fill:none;clip-rule:evenodd"/></clipPath><clipPath id="c33e062c-9215-4b9f-823b-430304bb97d5"><rect x="-423.83333" y="-63.55522" width="640" height="90.66667" style="fill:none"/></clipPath></defs><title>down</title><g style="clip-path:url(#0c1bc40b-1c04-48d2-af39-5bfb1d9a870d)"><g style="clip-path:url(#c33e062c-9215-4b9f-823b-430304bb97d5)"><rect x="-4.27778" y="-3.99967" width="19.55556" height="16" style="fill:#fff"/></g></g></svg>