<svg id="2b305d83-c82f-4b60-94b4-3b81d6c11c23" data-name="Layer 1" xmlns="http://www.w3.org/2000/svg" xmlns:xlink="http://www.w3.org/1999/xlink" width="556" height="40" viewBox="0 0 556 40"><defs><clipPath id="5b84879e-02ec-45e8-b14c-3d0bc8e558c9"><path d="M28.20781,36.15716L22.888,27.80459H8.19488L6.01594,36.15716H1L9.46133,3.6739h3.496l20.9251,32.48326H28.20781ZM12.39993,11.46767L9.30941,23.39526H20.05063Z" style="fill:none;clip-rule:evenodd"/></clipPath><clipPath id="33ff09e6-fb63-4c05-91ac-94f813b69ed6"><rect x="-41.70823" y="-24.66599" width="638.749" height="90.48944" style="fill:none"/></clipPath><clipPath id="99531856-7aab-4ff7-b6c0-094e0470807a"><path d="M75.85016,36.15716L70.5303,27.80459H55.83721l-2.17893,8.35256h-5.016L57.10367,3.6739h3.496l20.9251,32.48326H75.85016ZM60.04226,11.46767L56.9517,23.39526H67.693Z" style="fill:none;clip-rule:evenodd"/></clipPath><clipPath id="4d9c490c-8e74-4c60-ae64-cf30ec75f55e"><path d="M123.49279,36.15716l-5.31985-8.35256h-14.693L101.301,36.15716H96.285L104.74631,3.6739h3.496l20.92511,32.48326h-5.67466ZM107.685,11.46767l-3.09057,11.92759h10.74128Z" style="fill:none;clip-rule:evenodd"/></clipPath><clipPath id="eb1172a3-a49b-4071-8045-1905f57b1f00"><polygon points="8.127 36.157 14.36 3.674 19.376 3.674 13.954 31.748 29.762 31.748 28.901 36.157 8.127 36.157" style="fill:none;clip-rule:evenodd"/></clipPath><clipPath id="ea96c213-9e94-4fc6-9663-6ff8eb8610ef"><polygon points="65.34 39.391 54.496 8.141 58.839 5.634 68.182 32.658 81.872 24.753 83.33 29.002 65.34 39.391" style="fill:none;clip-rule:evenodd"/></clipPath><clipPath id="5fc73f7c-4890-4c8a-939a-f3915f0a0c87"><polygon points="118.806 38.903 99.3 12.191 102.721 8.522 119.556 31.637 130.337 20.073 132.974 23.71 118.806 38.903" style="fill:none;clip-rule:evenodd"/></clipPath><clipPath id="5455705d-f040-435c-986e-b38da5c238b7"><path d="M312.09626,36.15716l-5.31985-8.35256H292.08332l-2.17892,8.35256h-5.016L293.34977,3.6739h3.496l20.92511,32.48326h-5.67462ZM296.28838,11.46767l-3.09052,11.92759h10.74122Z" style="fill:none;clip-rule:evenodd"/></clipPath><clipPath id="a80515a0-5a27-4ec5-b509-0719afb145a0"><path d="M359.7386,36.15716l-5.31985-8.35256H339.72566l-2.17895,8.35256h-5.01595L340.99211,3.6739h3.496l20.92511,32.48326H359.7386ZM343.93072,11.46767l-3.09057,11.92759h10.74128Z" style="fill:none;clip-rule:evenodd"/></clipPath><clipPath id="4557334d-ce94-4791-9d83-37b0f848337f"><path d="M407.3811,36.15716l-5.31979-8.35256h-14.693l-2.17895,8.35256h-5.01595L388.63475,3.6739h3.49606l20.925,32.48326H407.3811ZM391.57341,11.46767l-3.09057,11.92759h10.74125Z" style="fill:none;clip-rule:evenodd"/></clipPath><clipPath id="f8154fa1-9fd3-448f-8e72-c809a81deb27"><polygon points="315.805 5.337 305.113 36.636 300.146 35.94 309.422 8.891 293.768 6.691 295.234 2.445 315.805 5.337" style="fill:none;clip-rule:evenodd"/></clipPath><clipPath id="03d07b48-9a72-46a1-8049-c60a0be781ab"><polygon points="347.647 0.609 364.751 28.918 361.023 32.272 346.266 7.782 334.519 18.361 332.209 14.506 347.647 0.609" style="fill:none;clip-rule:evenodd"/></clipPath><clipPath id="df9ddfe0-71fa-47d8-8330-72072d9cc1f2"><polygon points="381.953 9.099 414.435 15.331 414.435 20.348 386.361 14.923 386.361 30.732 381.953 29.872 381.953 9.099" style="fill:none;clip-rule:evenodd"/></clipPath><clipPath id="d690f654-0739-42e8-84fb-b1785c2afa50"><path d="M170.152,36.15716l-5.31985-8.35256H150.13909l-2.17893,8.35256h-5.01595L151.40555,3.6739h3.496l20.92511,32.48326H170.152ZM154.34416,11.46767l-3.09053,11.92759h10.74124Z" style="fill:none;clip-rule:evenodd"/></clipPath><clipPath id="ff189ac9-f63e-433b-ad5d-e80167c00154"><path d="M217.79438,36.15716l-5.31985-8.35256H197.78144l-2.17895,8.35256h-5.01595L199.04789,3.6739h3.496L223.469,36.15716h-5.67462ZM201.9865,11.46767l-3.09057,11.92759H209.6372Z" style="fill:none;clip-rule:evenodd"/></clipPath><clipPath id="52792493-c035-49c0-a7f2-581c010a099f"><path d="M265.437,36.15716l-5.31985-8.35256h-14.693l-2.17895,8.35256h-5.01595L246.69053,3.6739h3.49606l20.92511,32.48326H265.437ZM249.62919,11.46767l-3.09057,11.92759h10.74125Z" style="fill:none;clip-rule:evenodd"/></clipPath><clipPath id="5a11b6ac-caf5-4007-97e2-16a8b1f0b9a3"><polygon points="170.745 36.756 144.281 16.915 146.48 12.408 169.337 29.588 176.266 15.38 179.851 18.086 170.745 36.756" style="fill:none;clip-rule:evenodd"/></clipPath><clipPath id="23feae0a-445f-435a-8d21-a5af5c2bf2bb"><polygon points="223.768 32.107 191.952 23.067 192.389 18.072 219.884 25.919 221.262 10.172 225.579 11.414 223.768 32.107" style="fill:none;clip-rule:evenodd"/></clipPath><clipPath id="44b084ce-8908-4366-ba33-a4152fe6783b"><polygon points="275.668 21.843 244.062 31.588 241.707 27.161 269.041 18.765 261.619 4.81 265.916 3.501 275.668 21.843" style="fill:none;clip-rule:evenodd"/></clipPath><clipPath id="9ef3a06d-27ab-4ac8-8037-0fea3f87e973"><path d="M454.0404,36.15716l-5.31982-8.35256h-14.693l-2.17884,8.35256h-5.01595L435.294,3.6739h3.49581L459.715,36.15716H454.0404ZM438.23271,11.46767l-3.09084,11.92759h10.7416Z" style="fill:none;clip-rule:evenodd"/></clipPath><clipPath id="22f7fbdb-1c24-47b3-b5b4-16575daad221"><path d="M501.68266,36.15716l-5.31982-8.35256h-14.693L479.491,36.15716H474.475L482.93622,3.6739h3.4963l20.92478,32.48326h-5.67465ZM485.87491,11.46767l-3.09036,11.92759h10.74117Z" style="fill:none;clip-rule:evenodd"/></clipPath><clipPath id="ec8f323b-4493-4876-9bf2-0dce6862f101"><path d="M549.32535,36.15716l-5.31982-8.35256h-14.693l-2.17884,8.35256h-5.01595L530.57892,3.6739h3.4963L555,36.15716h-5.67465ZM533.51761,11.46767l-3.09036,11.92759h10.74117Z" style="fill:none;clip-rule:evenodd"/></clipPath><clipPath id="e6147d2a-79ff-4923-ba20-9f59cfa845c7"><polygon points="425.644 23.75 453.02 5.187 456.567 8.735 432.881 24.753 444.059 35.931 440.333 38.441 425.644 23.75" style="fill:none;clip-rule:evenodd"/></clipPath><clipPath id="6a88b8c4-7c2f-4c94-98f1-da83f221b249"><polygon points="476.7 31.478 493.666 3.084 498.379 4.801 483.683 29.326 498.537 34.733 496.22 38.583 476.7 31.478" style="fill:none;clip-rule:evenodd"/></clipPath><clipPath id="b85dfa0a-2955-458c-b7e1-cf91ecadf7a9"><polygon points="529.321 36.157 535.553 3.674 540.569 3.674 535.147 31.748 550.955 31.748 550.094 36.157 529.321 36.157" style="fill:none;clip-rule:evenodd"/></clipPath></defs><title>logo</title><g style="clip-path:url(#5b84879e-02ec-45e8-b14c-3d0bc8e558c9)"><g style="clip-path:url(#33ff09e6-fb63-4c05-91ac-94f813b69ed6)"><rect x="-3.43576" y="-0.76185" width="41.75394" height="41.35477" style="fill:#232020"/></g></g><g style="clip-path:url(#99531856-7aab-4ff7-b6c0-094e0470807a)"><g style="clip-path:url(#33ff09e6-fb63-4c05-91ac-94f813b69ed6)"><rect x="44.20657" y="-0.76185" width="41.75395" height="41.35477" style="fill:#232020"/></g></g><g style="clip-path:url(#4d9c490c-8e74-4c60-ae64-cf30ec75f55e)"><g style="clip-path:url(#33ff09e6-fb63-4c05-91ac-94f813b69ed6)"><rect x="91.84926" y="-0.76185" width="41.75396" height="41.35477" style="fill:#232020"/></g></g><g style="clip-path:url(#eb1172a3-a49b-4071-8045-1905f57b1f00)"><g style="clip-path:url(#33ff09e6-fb63-4c05-91ac-94f813b69ed6)"><rect x="3.69174" y="-0.76185" width="30.50598" height="41.35477" style="fill:#00f2dd;opacity:0.8999999761581421"/></g></g><g style="clip-path:url(#ea96c213-9e94-4fc6-9663-6ff8eb8610ef)"><g style="clip-path:url(#33ff09e6-fb63-4c05-91ac-94f813b69ed6)"><rect x="51.33366" y="-0.76163" width="30.50679" height="41.35454" transform="translate(-1.0362 35.96443) rotate(-30.00229)" style="fill:#00f2dd;opacity:0.8999999761581421"/></g></g><g style="clip-path:url(#5fc73f7c-4890-4c8a-939a-f3915f0a0c87)"><g style="clip-path:url(#33ff09e6-fb63-4c05-91ac-94f813b69ed6)"><rect x="99.05277" y="-0.76303" width="30.50535" height="41.35518" transform="translate(21.78723 89.93386) rotate(-47.00204)" style="fill:#00f2dd;opacity:0.8999999761581421"/></g></g><g style="clip-path:url(#5455705d-f040-435c-986e-b38da5c238b7)"><g style="clip-path:url(#33ff09e6-fb63-4c05-91ac-94f813b69ed6)"><rect x="280.45267" y="-0.76185" width="41.75397" height="41.35477" style="fill:#232020"/></g></g><g style="clip-path:url(#a80515a0-5a27-4ec5-b509-0719afb145a0)"><g style="clip-path:url(#33ff09e6-fb63-4c05-91ac-94f813b69ed6)"><rect x="328.09501" y="-0.76185" width="41.75397" height="41.35477" style="fill:#232020"/></g></g><g style="clip-path:url(#4557334d-ce94-4791-9d83-37b0f848337f)"><g style="clip-path:url(#33ff09e6-fb63-4c05-91ac-94f813b69ed6)"><rect x="375.7377" y="-0.76185" width="41.75384" height="41.35477" style="fill:#232020"/></g></g><g style="clip-path:url(#f8154fa1-9fd3-448f-8e72-c809a81deb27)"><g style="clip-path:url(#33ff09e6-fb63-4c05-91ac-94f813b69ed6)"><rect x="282.15642" y="4.66259" width="41.35351" height="30.50588" transform="translate(240.96956 317.03075) rotate(-82.00084)" style="fill:#00f2dd;opacity:0.8999999761581421"/></g></g><g style="clip-path:url(#03d07b48-9a72-46a1-8049-c60a0be781ab)"><g style="clip-path:url(#33ff09e6-fb63-4c05-91ac-94f813b69ed6)"><rect x="335.22289" y="-0.76304" width="30.50526" height="41.35498" transform="translate(76.67875 239.60742) rotate(-41.99548)" style="fill:#00f2dd;opacity:0.8999999761581421"/></g></g><g style="clip-path:url(#df9ddfe0-71fa-47d8-8330-72072d9cc1f2)"><g style="clip-path:url(#33ff09e6-fb63-4c05-91ac-94f813b69ed6)"><rect x="377.51679" y="4.66328" width="41.35426" height="30.50449" style="fill:#00f2dd;opacity:0.8999999761581421"/></g></g><g style="clip-path:url(#d690f654-0739-42e8-84fb-b1785c2afa50)"><g style="clip-path:url(#33ff09e6-fb63-4c05-91ac-94f813b69ed6)"><rect x="138.50846" y="-0.76185" width="41.75396" height="41.35477" style="fill:#232020"/></g></g><g style="clip-path:url(#ff189ac9-f63e-433b-ad5d-e80167c00154)"><g style="clip-path:url(#33ff09e6-fb63-4c05-91ac-94f813b69ed6)"><rect x="186.15079" y="-0.76185" width="41.75397" height="41.35477" style="fill:#232020"/></g></g><g style="clip-path:url(#52792493-c035-49c0-a7f2-581c010a099f)"><g style="clip-path:url(#33ff09e6-fb63-4c05-91ac-94f813b69ed6)"><rect x="233.79348" y="-0.76185" width="41.75397" height="41.35477" style="fill:#232020"/></g></g><g style="clip-path:url(#5a11b6ac-caf5-4007-97e2-16a8b1f0b9a3)"><g style="clip-path:url(#33ff09e6-fb63-4c05-91ac-94f813b69ed6)"><rect x="145.63453" y="-0.76152" width="30.50885" height="41.35431" transform="translate(72.46635 155.79548) rotate(-64.00275)" style="fill:#00f2dd;opacity:0.8999999761581421"/></g></g><g style="clip-path:url(#23feae0a-445f-435a-8d21-a5af5c2bf2bb)"><g style="clip-path:url(#33ff09e6-fb63-4c05-91ac-94f813b69ed6)"><rect x="193.27851" y="-0.76134" width="30.50557" height="41.35396" transform="translate(170.51654 225.91761) rotate(-84.99994)" style="fill:#00f2dd;opacity:0.8999999761581421"/></g></g><g style="clip-path:url(#44b084ce-8908-4366-ba33-a4152fe6783b)"><g style="clip-path:url(#33ff09e6-fb63-4c05-91ac-94f813b69ed6)"><rect x="235.57241" y="4.66317" width="41.35453" height="30.50494" transform="translate(20.64694 122.63799) rotate(-28.00119)" style="fill:#00f2dd;opacity:0.8999999761581421"/></g></g><g style="clip-path:url(#9ef3a06d-27ab-4ac8-8037-0fea3f87e973)"><g style="clip-path:url(#33ff09e6-fb63-4c05-91ac-94f813b69ed6)"><rect x="422.39702" y="-0.76185" width="41.75378" height="41.35477" style="fill:#232020"/></g></g><g style="clip-path:url(#22f7fbdb-1c24-47b3-b5b4-16575daad221)"><g style="clip-path:url(#33ff09e6-fb63-4c05-91ac-94f813b69ed6)"><rect x="470.03928" y="-0.76185" width="41.75378" height="41.35477" style="fill:#232020"/></g></g><g style="clip-path:url(#ec8f323b-4493-4876-9bf2-0dce6862f101)"><g style="clip-path:url(#33ff09e6-fb63-4c05-91ac-94f813b69ed6)"><rect x="517.68197" y="-0.76185" width="41.75378" height="41.35477" style="fill:#232020"/></g></g><g style="clip-path:url(#e6147d2a-79ff-4923-ba20-9f59cfa845c7)"><g style="clip-path:url(#33ff09e6-fb63-4c05-91ac-94f813b69ed6)"><rect x="424.10078" y="4.66271" width="41.35325" height="30.50607" transform="translate(116.18973 320.33831) rotate(-45)" style="fill:#00f2dd;opacity:0.8999999761581421"/></g></g><g style="clip-path:url(#6a88b8c4-7c2f-4c94-98f1-da83f221b249)"><g style="clip-path:url(#33ff09e6-fb63-4c05-91ac-94f813b69ed6)"><rect x="471.74193" y="4.66285" width="41.35545" height="30.50557" transform="translate(305.30038 475.83244) rotate(-70.0016)" style="fill:#00f2dd;opacity:0.8999999761581421"/></g></g><g style="clip-path:url(#b85dfa0a-2955-458c-b7e1-cf91ecadf7a9)"><g style="clip-path:url(#33ff09e6-fb63-4c05-91ac-94f813b69ed6)"><rect x="524.88521" y="-0.76185" width="30.50601" height="41.35477" style="fill:#00f2dd;opacity:0.8999999761581421"/></g></g></svg>