<svg id="4e663eca-e507-4751-8ae9-71833a08bcc6" data-name="Layer 1" xmlns="http://www.w3.org/2000/svg" xmlns:xlink="http://www.w3.org/1999/xlink" width="442" height="44" viewBox="0 0 442 44"><defs><clipPath id="87b5bcc7-2664-4596-b896-4ee33c7b86ee"><path d="M31.93542,38.859l-6.1157-9.624H8.92853L6.42364,38.859H0.65728L10.38443,1.431h4.019L38.459,38.859H31.93542ZM13.76267,10.413L10.20976,24.15515H22.55793Z" style="fill:none;clip-rule:evenodd"/></clipPath><clipPath id="d55210f8-1838-4cfe-beb5-82e1feabe21b"><rect x="-15.48638" y="-18.60193" width="640" height="80" style="fill:none"/></clipPath><clipPath id="c20f6598-ff2c-406f-b27a-00a3893683f8"><path d="M86.70512,38.859l-6.11568-9.624H63.69825l-2.50489,9.624H55.427L65.15415,1.431h4.019L93.22872,38.859H86.70512ZM68.53239,10.413L64.97948,24.15515H77.32765Z" style="fill:none;clip-rule:evenodd"/></clipPath><clipPath id="4ce769e6-f613-4646-b2eb-e876a413b306"><path d="M141.47521,38.859l-6.11569-9.624h-16.8912l-2.5049,9.624h-5.7663l9.7271-37.428h4.0191l24.0555,37.428h-6.52361Zm-18.1727-28.446-3.5529,13.74219h12.34811Z" style="fill:none;clip-rule:evenodd"/></clipPath><clipPath id="7ee414cd-653d-4331-8c55-49a659171486"><polygon points="8.851 38.859 16.015 1.431 21.782 1.431 15.549 33.78 33.722 33.78 32.732 38.859 8.851 38.859" style="fill:none;clip-rule:evenodd"/></clipPath><clipPath id="09cbcd14-37e2-4920-9901-b35aa824114f"><polygon points="74.644 42.569 62.134 6.573 67.128 3.69 77.905 34.821 93.643 25.735 95.325 30.629 74.644 42.569" style="fill:none;clip-rule:evenodd"/></clipPath><clipPath id="04c3212e-bbcc-493a-b894-e25756c57373"><polygon points="136.119 42.003 113.632 11.237 117.565 7.02 136.973 33.64 149.366 20.349 152.406 24.537 136.119 42.003" style="fill:none;clip-rule:evenodd"/></clipPath><clipPath id="701c14da-49c9-42fe-a499-d65cdbad8ac2"><path d="M195.11482,38.859l-6.11569-9.624h-16.8912l-2.5049,9.624h-5.7664l9.7272-37.428h4.019l24.0555,37.428h-6.5235ZM176.942,10.413l-3.5529,13.74219h12.34819Z" style="fill:none;clip-rule:evenodd"/></clipPath><clipPath id="631875f3-c7d8-4800-b0e3-a889e025384c"><polygon points="195.835 39.525 165.335 16.679 167.863 11.496 194.206 31.278 202.172 14.945 206.303 18.061 195.835 39.525" style="fill:none;clip-rule:evenodd"/></clipPath><clipPath id="ee61eb0b-2352-49a5-b511-d901aaaa0232"><path d="M256.79041,11.39807a2.27617,2.27617,0,0,1,2.31381,2.25708,2.24574,2.24574,0,0,1-2.31381,2.22,2.21425,2.21425,0,0,1-2.27679-2.22A2.24476,2.24476,0,0,1,256.79041,11.39807Zm-1.72589,25.073h3.4888v-16.835h-3.4888v16.835Z" style="fill:none;clip-rule:evenodd"/></clipPath><clipPath id="c96278e2-98f4-4835-af77-ebf6e8c0b295"><path d="M274.02531,22.765a5.10749,5.10749,0,0,0-1.35858-.14282,5.801,5.801,0,0,0-4.66431,2.82983V36.59119h-3.4888V19.756h3.3786V21.691a6.38134,6.38134,0,0,1,5.17841-2.293,9.12,9.12,0,0,1,1.35849.10693Z" style="fill:none;clip-rule:evenodd"/></clipPath><clipPath id="3bda3c4f-72cf-48e3-8902-a6ec12f4b69e"><path d="M279.89271,28.89a5.505,5.505,0,0,0,5.58212,5.08594,6.27939,6.27939,0,0,0,4.958-2.292l2.27692,2.113a9.13575,9.13575,0,0,1-7.2717,3.1521,8.66178,8.66178,0,0,1-8.92441-8.77612c0-5.0498,3.5257-8.7749,8.41031-8.7749,4.811,0,8.2998,3.7959,8.2998,8.7749a6.0635,6.0635,0,0,1-.0365.717H279.89271Zm0.29361-2.866h9.40149a4.795,4.795,0,0,0-4.55368-3.65308A4.99678,4.99678,0,0,0,280.18632,26.024Z" style="fill:none;clip-rule:evenodd"/></clipPath><clipPath id="ad0de177-e7ee-4800-b0d8-e985a07aa13c"><polygon points="302.186 33.068 313.571 33.068 313.571 36.47 298.514 36.47 298.514 11.398 302.186 11.398 302.186 33.068" style="fill:none;clip-rule:evenodd"/></clipPath><clipPath id="ddd7407c-7b5b-4585-9632-16de247eb7db"><path d="M318.79041,11.39807a2.27642,2.27642,0,0,1,2.31381,2.25708,2.246,2.246,0,0,1-2.31381,2.22,2.21393,2.21393,0,0,1-2.27679-2.22A2.24444,2.24444,0,0,1,318.79041,11.39807Zm-1.72638,25.073h3.4888v-16.835H317.064v16.835Z" style="fill:none;clip-rule:evenodd"/></clipPath><clipPath id="a59b27e7-dbdc-4cea-a29b-54d5fac1ee2a"><path d="M331.89222,36.829h-3.3786V11.39807h3.4888V21.462a8.6857,8.6857,0,0,1,9.51169-.752A8.85516,8.85516,0,0,1,345.958,28.411a8.7669,8.7669,0,0,1-4.4071,7.666,9.02879,9.02879,0,0,1-4.33368,1.11011,8.03151,8.03151,0,0,1-5.325-1.89917v1.541Zm0.1102-5.26587A6.03616,6.03616,0,0,0,336.74,33.963a5.56705,5.56705,0,0,0,5.72879-5.552,5.45268,5.45268,0,0,0-5.54529-5.552,6.27172,6.27172,0,0,0-4.92111,2.40015v6.304Z" style="fill:none;clip-rule:evenodd"/></clipPath><clipPath id="2672f1f0-810c-430b-b576-abf182463b54"><path d="M360.02531,22.765a5.10749,5.10749,0,0,0-1.35858-.14282,5.801,5.801,0,0,0-4.66431,2.82983V36.59119h-3.4888V19.756h3.3786V21.691a6.38134,6.38134,0,0,1,5.17841-2.293,9.12,9.12,0,0,1,1.35849.10693Z" style="fill:none;clip-rule:evenodd"/></clipPath><clipPath id="027c4537-bdf9-440e-9f5d-56f91d4c3a34"><path d="M365.89271,28.89a5.505,5.505,0,0,0,5.58212,5.08594,6.27939,6.27939,0,0,0,4.958-2.292l2.27692,2.113a9.13575,9.13575,0,0,1-7.2717,3.1521,8.66178,8.66178,0,0,1-8.92441-8.77612c0-5.0498,3.5257-8.7749,8.41031-8.7749,4.811,0,8.2998,3.7959,8.2998,8.7749a6.0635,6.0635,0,0,1-.0365.717H365.89271Zm0.29361-2.866h9.40149a4.795,4.795,0,0,0-4.55368-3.65308A4.99678,4.99678,0,0,0,366.18632,26.024Z" style="fill:none;clip-rule:evenodd"/></clipPath><clipPath id="9b0200ff-15bb-4bf1-aee9-0fead0c36e18"><path d="M389.08412,33.39807a2.50774,2.50774,0,1,1-2.5705,2.50708,2.52414,2.52414,0,0,1,2.5705-2.50708" style="fill:none;clip-rule:evenodd"/></clipPath><clipPath id="32019f8a-e78e-4b36-be8e-e6cbd9426150"><path d="M408.63313,14.765a5.80441,5.80441,0,0,0-1.28531-.14282,3.443,3.443,0,0,0-2.6442,1.18188,4.69831,4.69831,0,0,0-.6611,3.00806v1.541h5.325v3.04395h-5.325v13.79h-3.4888v-13.79h-4.0401V20.35315h4.0401V18.92c0-2.25708.3306-3.65405,1.10141-4.728a6.818,6.818,0,0,1,5.65588-2.79395,8.19134,8.19134,0,0,1,2.05652.251Z" style="fill:none;clip-rule:evenodd"/></clipPath><clipPath id="4331bb92-e65f-47d4-8543-adfbbb768ba4"><path d="M415.89222,19.756V21.368a7.61039,7.61039,0,0,1,5.06821-1.97,7.90138,7.90138,0,0,1,6.09619,2.79395,8.73918,8.73918,0,0,1,6.5737-2.79395,7.88952,7.88952,0,0,1,6.13351,2.83008c1.06488,1.28882,1.57889,2.937,1.57889,5.76587v8.59717h-3.4888v-9.134a4.70106,4.70106,0,0,0-.99161-3.36719,4.27886,4.27886,0,0,0-3.232-1.46777,7.15141,7.15141,0,0,0-5.25159,2.3999,13.56161,13.56161,0,0,1,.29358,2.97192v8.59717h-3.4888v-9.134a4.70118,4.70118,0,0,0-.99109-3.36719,4.46009,4.46009,0,0,0-3.34219-1.46777,6.62037,6.62037,0,0,0-4.84781,2.3999V36.59119h-3.4888V19.756h3.3786Z" style="fill:none;clip-rule:evenodd"/></clipPath><clipPath id="4c51998a-c222-4608-92a9-5ea60adee404"><path d="M244.08512,29.96912h-10.9825l-2.71741,6.429h-3.8716l10.7961-25h2.6057l10.79611,25h-3.87161ZM234.59191,26.577h8.04131l-4.0206-9.28589Z" style="fill:none;clip-rule:evenodd"/></clipPath></defs><title>Untitled-3</title><g style="clip-path:url(#87b5bcc7-2664-4596-b896-4ee33c7b86ee)"><g style="clip-path:url(#d55210f8-1838-4cfe-beb5-82e1feabe21b)"><rect x="-9.34272" y="-8.56897" width="57.80172" height="57.42798" style="fill:#232020"/></g></g><g style="clip-path:url(#c20f6598-ff2c-406f-b27a-00a3893683f8)"><g style="clip-path:url(#d55210f8-1838-4cfe-beb5-82e1feabe21b)"><rect x="45.427" y="-8.56897" width="57.80172" height="57.42798" style="fill:#232020"/></g></g><g style="clip-path:url(#4ce769e6-f613-4646-b2eb-e876a413b306)"><g style="clip-path:url(#d55210f8-1838-4cfe-beb5-82e1feabe21b)"><rect x="100.19712" y="-8.56897" width="57.8017" height="57.42798" style="fill:#232020"/></g></g><g style="clip-path:url(#7ee414cd-653d-4331-8c55-49a659171486)"><g style="clip-path:url(#d55210f8-1838-4cfe-beb5-82e1feabe21b)"><rect x="-1.14892" y="-8.56897" width="44.871" height="57.42798" style="fill:#00f2dd;opacity:0.8999999761581421"/></g></g><g style="clip-path:url(#09cbcd14-37e2-4920-9901-b35aa824114f)"><g style="clip-path:url(#d55210f8-1838-4cfe-beb5-82e1feabe21b)"><rect x="53.62081" y="-8.56936" width="44.87095" height="57.42838" transform="translate(0.11692 40.72603) rotate(-29.99924)" style="fill:#00f2dd;opacity:0.8999999761581421"/></g></g><g style="clip-path:url(#04c3212e-bbcc-493a-b894-e25756c57373)"><g style="clip-path:url(#d55210f8-1838-4cfe-beb5-82e1feabe21b)"><rect x="108.47796" y="-8.56909" width="44.87097" height="57.42785" transform="translate(26.89693 102.14916) rotate(-46.99947)" style="fill:#00f2dd;opacity:0.8999999761581421"/></g></g><g style="clip-path:url(#701c14da-49c9-42fe-a499-d65cdbad8ac2)"><g style="clip-path:url(#d55210f8-1838-4cfe-beb5-82e1feabe21b)"><rect x="153.83662" y="-8.56897" width="57.8017" height="57.42798" style="fill:#232020"/></g></g><g style="clip-path:url(#631875f3-c7d8-4800-b0e3-a889e025384c)"><g style="clip-path:url(#d55210f8-1838-4cfe-beb5-82e1feabe21b)"><rect x="162.03031" y="-8.56962" width="44.87126" height="57.4283" transform="translate(85.49625 177.11105) rotate(-64.00023)" style="fill:#00f2dd;opacity:0.8999999761581421"/></g></g><g style="clip-path:url(#ee61eb0b-2352-49a5-b511-d901aaaa0232)"><g style="clip-path:url(#d55210f8-1838-4cfe-beb5-82e1feabe21b)"><rect x="244.51362" y="1.39807" width="24.59061" height="45.073" style="fill:#232020"/></g></g><g style="clip-path:url(#c96278e2-98f4-4835-af77-ebf6e8c0b295)"><g style="clip-path:url(#d55210f8-1838-4cfe-beb5-82e1feabe21b)"><rect x="254.51362" y="9.39807" width="29.9155" height="37.19312" style="fill:#232020"/></g></g><g style="clip-path:url(#3bda3c4f-72cf-48e3-8902-a6ec12f4b69e)"><g style="clip-path:url(#d55210f8-1838-4cfe-beb5-82e1feabe21b)"><rect x="266.51362" y="9.39807" width="36.71011" height="37.55103" style="fill:#232020"/></g></g><g style="clip-path:url(#ad0de177-e7ee-4800-b0d8-e985a07aa13c)"><g style="clip-path:url(#d55210f8-1838-4cfe-beb5-82e1feabe21b)"><rect x="288.51362" y="1.39807" width="35.0574" height="45.07202" style="fill:#232020"/></g></g><g style="clip-path:url(#ddd7407c-7b5b-4585-9632-16de247eb7db)"><g style="clip-path:url(#d55210f8-1838-4cfe-beb5-82e1feabe21b)"><rect x="306.51362" y="1.39807" width="24.59061" height="45.073" style="fill:#232020"/></g></g><g style="clip-path:url(#a59b27e7-dbdc-4cea-a29b-54d5fac1ee2a)"><g style="clip-path:url(#d55210f8-1838-4cfe-beb5-82e1feabe21b)"><rect x="318.51362" y="1.39807" width="37.4444" height="45.78906" style="fill:#232020"/></g></g><g style="clip-path:url(#2672f1f0-810c-430b-b576-abf182463b54)"><g style="clip-path:url(#d55210f8-1838-4cfe-beb5-82e1feabe21b)"><rect x="340.51362" y="9.39807" width="29.9155" height="37.19312" style="fill:#232020"/></g></g><g style="clip-path:url(#027c4537-bdf9-440e-9f5d-56f91d4c3a34)"><g style="clip-path:url(#d55210f8-1838-4cfe-beb5-82e1feabe21b)"><rect x="352.51362" y="9.39807" width="36.71011" height="37.55103" style="fill:#232020"/></g></g><g style="clip-path:url(#9b0200ff-15bb-4bf1-aee9-0fead0c36e18)"><g style="clip-path:url(#d55210f8-1838-4cfe-beb5-82e1feabe21b)"><rect x="376.51362" y="23.39807" width="25.14099" height="25.01392" style="fill:#232020"/></g></g><g style="clip-path:url(#32019f8a-e78e-4b36-be8e-e6cbd9426150)"><g style="clip-path:url(#d55210f8-1838-4cfe-beb5-82e1feabe21b)"><rect x="386.51362" y="1.39807" width="32.85391" height="45.78906" style="fill:#232020"/></g></g><g style="clip-path:url(#4331bb92-e65f-47d4-8543-adfbbb768ba4)"><g style="clip-path:url(#d55210f8-1838-4cfe-beb5-82e1feabe21b)"><rect x="402.51362" y="9.39807" width="48.8291" height="37.19312" style="fill:#232020"/></g></g><g style="clip-path:url(#4c51998a-c222-4608-92a9-5ea60adee404)"><g style="clip-path:url(#d55210f8-1838-4cfe-beb5-82e1feabe21b)"><rect x="216.51362" y="1.39807" width="44.19791" height="45" style="fill:#232020"/></g></g></svg>