<svg id="dd058afa-24f8-439f-b482-ab60d354b309" data-name="Layer 1" xmlns="http://www.w3.org/2000/svg" xmlns:xlink="http://www.w3.org/1999/xlink" width="76" height="76" viewBox="0 0 76 76"><defs><clipPath id="2302a0fb-98e6-4e27-b9b0-47d6e6ee9238"><path d="M38,73.59521c19.27366,0,34.89806-15.94043,34.89806-35.60059C72.898,18.34521,57.27365,2.40479,38,2.40479S3.102,18.34521,3.102,37.99463C3.102,57.65479,18.72633,73.59521,38,73.59521Z" style="fill:none;clip-rule:evenodd"/></clipPath><clipPath id="e63f664b-0196-467f-82f4-b1f16e71936b"><rect x="-44.89805" y="-25.59521" width="2880" height="120" style="fill:none"/></clipPath><clipPath id="c0e88507-26b6-4e76-9ed2-ea4039062c3a"><path d="M30.30373,19.07471a2.92534,2.92534,0,0,0-2.20947-.2998q-1.06224.30029-1.06224,2.5498V54.65479c0,1.37988.37532,2.21,1.126,2.5a2.20891,2.20891,0,0,0,2.14572-.25977L56.13735,39.9751a2.84488,2.84488,0,0,0,0-3.9707Z" style="fill:none;clip-rule:evenodd"/></clipPath></defs><title>Untitled-9</title><g style="clip-path:url(#2302a0fb-98e6-4e27-b9b0-47d6e6ee9238)"><g style="clip-path:url(#e63f664b-0196-467f-82f4-b1f16e71936b)"><rect x="-6.89805" y="-7.59521" width="89.7961" height="91.19043" style="fill:#fff"/></g></g><path d="M38,75.5918c-20.3457,0-36.89795-16.86426-36.89795-37.59326C1.10205,17.269,17.6543.40479,38,.40479S74.89844,17.269,74.89844,37.99854C74.89844,58.72754,58.3457,75.5918,38,75.5918Zm0-71.187c-18.14014,0-32.89795,15.07031-32.89795,33.59375C5.10205,56.52148,19.85986,71.5918,38,71.5918c18.14063,0,32.89844-15.07031,32.89844-33.59326C70.89844,19.4751,56.14063,4.40479,38,4.40479Z" style="fill:#ff1b41"/><g style="clip-path:url(#c0e88507-26b6-4e76-9ed2-ea4039062c3a)"><g style="clip-path:url(#e63f664b-0196-467f-82f4-b1f16e71936b)"><rect x="17.03203" y="8.67432" width="49.91262" height="58.65039" style="fill:#ff1b41"/></g></g></svg>