<svg id="0b66bbfa-c06e-4cc9-883a-0bf0893ab1c9" data-name="Layer 1" xmlns="http://www.w3.org/2000/svg" xmlns:xlink="http://www.w3.org/1999/xlink" width="42" height="42" viewBox="0 0 42 42"><defs><clipPath id="e66587cd-1cee-4f4b-9f2d-d38ef1f05a1b"><path d="M41,37.9231A3.11983,3.11983,0,0,1,37.92308,41a2.85658,2.85658,0,0,1-2.16346-.91351l-8.2452-8.22107a16.461,16.461,0,0,1-9.59134,2.98077A16.62921,16.62921,0,0,1,11.34856,33.512a16.57341,16.57341,0,0,1-9.01443-9.0144,16.86653,16.86653,0,0,1,0-13.149,16.57274,16.57274,0,0,1,9.01443-9.01447,16.86677,16.86677,0,0,1,13.149,0A16.57273,16.57273,0,0,1,33.512,11.34857a16.62846,16.62846,0,0,1,1.33414,6.57452,16.46091,16.46091,0,0,1-2.98077,9.59131l8.24519,8.24518A2.945,2.945,0,0,1,41,37.9231ZM29,18a10.59361,10.59361,0,0,0-3.22879-7.77118A10.59394,10.59394,0,0,0,18,7a10.59391,10.59391,0,0,0-7.7712,3.22882A10.59362,10.59362,0,0,0,7,18a10.59362,10.59362,0,0,0,3.2288,7.77118A10.59391,10.59391,0,0,0,18,29a10.59394,10.59394,0,0,0,7.77121-3.22882A10.59361,10.59361,0,0,0,29,18Z" style="fill:none;clip-rule:evenodd"/></clipPath><clipPath id="3c2bdc8e-ec14-41ad-b0f7-82b54636f4ed"><rect x="-45" y="-431" width="640" height="1136" style="fill:none"/></clipPath></defs><title>Untitled-4</title><g style="clip-path:url(#e66587cd-1cee-4f4b-9f2d-d38ef1f05a1b)"><g style="clip-path:url(#3c2bdc8e-ec14-41ad-b0f7-82b54636f4ed)"><rect x="-9" y="-9" width="60" height="60"/></g></g></svg>