<svg id="4a8d2b27-0bf3-4f3b-abb3-69b29d997b05" data-name="Layer 1" xmlns="http://www.w3.org/2000/svg" xmlns:xlink="http://www.w3.org/1999/xlink" width="14" height="14" viewBox="0 0 14 14"><defs><clipPath id="cce217d0-72a4-4398-8048-d1001c6f59ca"><path d="M13.66667,12.64019a0.973,0.973,0,0,1-.30447.71962,0.98314,0.98314,0,0,1-.72135.30686A0.948,0.948,0,0,1,11.92,13.35981L9.17155,10.6224a5.48876,5.48876,0,0,1-3.19737.99089A5.71861,5.71861,0,0,1,1.98,9.96875,5.65426,5.65426,0,0,1,.77821,8.1645a5.61864,5.61864,0,0,1,0-4.38238A5.65906,5.65906,0,0,1,1.98,1.97786,5.70324,5.70324,0,0,1,3.78266.77778a5.62557,5.62557,0,0,1,4.38314,0A5.70034,5.70034,0,0,1,9.96886,1.97786a5.65906,5.65906,0,0,1,1.20182,1.80425,5.543,5.543,0,0,1,.44488,2.19141,5.49879,5.49879,0,0,1-.99382,3.19965l2.74848,2.747A0.97914,0.97914,0,0,1,13.66667,12.64019ZM9.564,5.97352A3.45228,3.45228,0,0,0,8.5102,3.4401a3.45674,3.45674,0,0,0-2.536-1.05339A3.45806,3.45806,0,0,0,3.43826,3.4401,3.454,3.454,0,0,0,2.38444,5.97352,3.45736,3.45736,0,0,0,3.43826,8.51128a3.45766,3.45766,0,0,0,2.53592,1.053,3.45633,3.45633,0,0,0,2.536-1.053A3.45568,3.45568,0,0,0,9.564,5.97352Z" style="fill:none;clip-rule:evenodd"/></clipPath><clipPath id="8b45b71c-d3a9-44fc-8897-1954bbfb43e2"><rect x="-590.11111" y="-61" width="640" height="90.66667" style="fill:none"/></clipPath></defs><title>Untitled-6</title><g style="clip-path:url(#cce217d0-72a4-4398-8048-d1001c6f59ca)"><g style="clip-path:url(#8b45b71c-d3a9-44fc-8897-1954bbfb43e2)"><rect x="-4.11111" y="-4.11111" width="22.22222" height="22.22222" style="fill:#fff"/></g></g></svg>