<?xml version="1.0" encoding="utf-8"?>
<!-- Generator: Adobe Illustrator 18.1.1, SVG Export Plug-In . SVG Version: 6.00 Build 0)  -->
<svg version="1.1" id="_x33_438b4c3-7252-469f-8d21-7691d89a7fe0"
	 xmlns="http://www.w3.org/2000/svg" xmlns:xlink="http://www.w3.org/1999/xlink" x="0px" y="0px" width="20px" height="20px"
	 viewBox="-501 375 20 20" enable-background="new -501 375 20 20" xml:space="preserve">
<g>
	<path id="SoundCloud" fill="#FFFFFF" d="M-501,387.2c0,0.7,0.3,1.3,0.8,1.7v-3.4C-500.7,385.9-501,386.5-501,387.2 M-499.4,385.1
		v4.3c0.2,0.1,0.4,0.1,0.6,0.1h0.2V385c-0.1,0-0.1,0-0.2,0C-499,385-499.2,385-499.4,385.1 M-497.5,385.4c-0.1,0-0.1-0.1-0.2-0.1
		v4.2h0.8v-5.6C-497.2,384.3-497.4,384.8-497.5,385.4 M-496,383.1v6.4h0.8v-6.8C-495.5,382.8-495.8,382.9-496,383.1 M-494.3,382.5v7
		h0.8v-6.9c-0.2,0-0.3,0-0.5,0C-494.1,382.5-494.2,382.5-494.3,382.5 M-492.2,383c-0.3-0.2-0.6-0.3-0.9-0.4v6.8h1.3v-7
		C-492,382.6-492.1,382.8-492.2,383 M-491.4,382v7.4h8v0c1.7-0.1,2.4-1.1,2.4-2.4c0-1.3-1-2.4-2.4-2.4c-0.4,0-0.6,0.1-0.9,0.2
		c-0.2-2.1-2-3.8-4.2-3.8C-489.7,381-490.6,381.4-491.4,382"/>
</g>
</svg>
