<svg id="3438b4c3-7252-469f-8d21-7691d89a7fe0" data-name="Layer 1" xmlns="http://www.w3.org/2000/svg" xmlns:xlink="http://www.w3.org/1999/xlink" width="20" height="20" viewBox="0 0 20 20"><defs><clipPath id="79ac2c09-8195-4911-960a-706874ba61cb"><path d="M17.11111,13.30208a1.35228,1.35228,0,0,1-.17773.66667,1.64073,1.64073,0,0,1-1.12587.76,0.47758,0.47758,0,0,0-.16309.03125c-0.04926.02214-.10352,0.04427-0.16309,0.06684a0.64015,0.64015,0,0,1-.11827.03082,0.4594,0.4594,0,0,1-.20747.03125v0.03125a2.01488,2.01488,0,0,1-.11871.57335,0.62035,0.62035,0,0,1-.65158.3776,0.80365,0.80365,0,0,1-.2666-0.03125,0.27306,0.27306,0,0,1-.07422-0.013,0.17935,0.17935,0,0,0-.07422-0.0178,5.01766,5.01766,0,0,0-.68142-0.0625,1.48052,1.48052,0,0,0-.77018.19141c-0.21734.16884-.35558,0.27561-0.41515,0.31554A3.45159,3.45159,0,0,1,10,17.11111a3.452,3.452,0,0,1-2.10357-.85764,1.65644,1.65644,0,0,1-.20752-0.16016,1.16472,1.16472,0,0,0-.20757-0.15538,1.42208,1.42208,0,0,0-.74045-0.19141,5.13251,5.13251,0,0,0-.7111.0625,0.179,0.179,0,0,0-.07422.0178,0.27408,0.27408,0,0,1-.07422.013,0.80422,0.80422,0,0,1-.26666.03125,0.62044,0.62044,0,0,1-.65158-0.3776,2.01566,2.01566,0,0,1-.11865-0.57335V14.88889a0.37133,0.37133,0,0,1-.17779-0.03125A0.65123,0.65123,0,0,1,4.548,14.82682C4.48888,14.80425,4.4298,14.78212,4.37023,14.76a0.62032,0.62032,0,0,0-.17779-0.03125,1.64075,1.64075,0,0,1-1.12576-.76,1.28862,1.28862,0,0,1-.17779-0.63542V12.85764l0.44444-.03082a2.32535,2.32535,0,0,0,1.6-.54253A2.99258,2.99258,0,0,0,6,10.63542a0.24713,0.24713,0,0,0-.11865-0.15972,2.92692,2.92692,0,0,0-.59245-0.25347,1.19482,1.19482,0,0,0-.20757-0.07986,1.19436,1.19436,0,0,1-.20709-0.0803,0.831,0.831,0,0,1-.504-0.9197A0.96412,0.96412,0,0,1,4.652,8.53776a0.82468,0.82468,0,0,1,.6071-0.25347,0.7453,0.7453,0,0,1,.35558.06684c0.11865,0.03993.28662,0.09332,0.504,0.15538-0.02-.27561-0.04932-0.59115-0.08887-0.951a4.13569,4.13569,0,0,1,.8591-3.24A3.79579,3.79579,0,0,1,10,2.88889a3.79564,3.79564,0,0,1,3.11111,1.42665,4.0871,4.0871,0,0,1,.85916,3.20877c-0.03961.467-.0689,0.79123-0.089,0.9822a2.805,2.805,0,0,0,.53342-0.15538,1.47087,1.47087,0,0,1,.35547-0.06684,0.82588,0.82588,0,0,1,.60764.25347,0.9612,0.9612,0,0,1,.28125.6046,0.858,0.858,0,0,1-.53331.9197,1.18988,1.18988,0,0,1-.20714.0803,1.19278,1.19278,0,0,0-.20747.07986,1.96329,1.96329,0,0,0-.56315.25347,0.45288,0.45288,0,0,0-.148.15972,2.99271,2.99271,0,0,0,1.06662,1.64887,2.66674,2.66674,0,0,0,1.6.54253l0.44444,0.03082v0.44444Z" style="fill:none;clip-rule:evenodd"/></clipPath><clipPath id="3c5f6e47-1fb3-4126-982c-9fc012bfe709"><rect x="-259.33333" y="-15.77778" width="640" height="90.66667" style="fill:none"/></clipPath></defs><title>sp</title><g style="clip-path:url(#79ac2c09-8195-4911-960a-706874ba61cb)"><g style="clip-path:url(#3c5f6e47-1fb3-4126-982c-9fc012bfe709)"><rect x="-1.55556" y="-1.55556" width="23.11111" height="23.11111" style="fill:#fff"/></g></g></svg>