<svg id="4af62a41-2dd6-4ca0-81ac-24304013a221" data-name="Layer 1" xmlns="http://www.w3.org/2000/svg" xmlns:xlink="http://www.w3.org/1999/xlink" width="20" height="20" viewBox="0 0 20 20"><defs><clipPath id="fa312283-9ea1-4f20-8b4f-35bcee1b065e"><path d="M18.33333,4.91536A7.13759,7.13759,0,0,1,16.62,6.658c0.00711,0.09766.01063,0.23958,0.01063,0.43533a9.41111,9.41111,0,0,1-.40175,2.70226,9.6876,9.6876,0,0,1-1.22135,2.59115,10.21574,10.21574,0,0,1-1.95112,2.191,8.69951,8.69951,0,0,1-2.72841,1.52,10.13713,10.13713,0,0,1-3.416.569,9.57326,9.57326,0,0,1-5.24533-1.51128,7.5884,7.5884,0,0,0,.82487.0447A6.74556,6.74556,0,0,0,6.73242,13.76,3.35156,3.35156,0,0,1,4.744,13.089a3.29251,3.29251,0,0,1-1.2053-1.66233,4.28251,4.28251,0,0,0,.64486.05339,3.63013,3.63013,0,0,0,.89914-0.11545,3.377,3.377,0,0,1-1.96181-1.16016,3.22944,3.22944,0,0,1-.77734-2.14236V8.02214a3.46773,3.46773,0,0,0,1.544.42665A3.39163,3.39163,0,0,1,2.77691,7.2487a3.328,3.328,0,0,1,.05284-3.30208A9.65574,9.65574,0,0,0,5.94444,6.431,9.56865,9.56865,0,0,0,9.87288,7.46658a3.68735,3.68735,0,0,1-.08442-0.76866A3.22892,3.22892,0,0,1,10.788,4.31554,3.46327,3.46327,0,0,1,15.7,4.3954,6.78348,6.78348,0,0,0,17.868,3.582a3.26375,3.26375,0,0,1-1.50179,1.85373A6.72141,6.72141,0,0,0,18.33333,4.91536Z" style="fill:none;clip-rule:evenodd"/></clipPath><clipPath id="d73df266-ad02-411b-b4af-60c65e411562"><rect x="-38.33333" y="-16.22222" width="640" height="90.66667" style="fill:none"/></clipPath></defs><title>tw</title><g style="clip-path:url(#fa312283-9ea1-4f20-8b4f-35bcee1b065e)"><g style="clip-path:url(#d73df266-ad02-411b-b4af-60c65e411562)"><rect x="-2.77778" y="-1.11111" width="25.55556" height="22.22222" style="fill:#fff"/></g></g></svg>